G75*
%MOIN*%
%OFA0B0*%
%FSLAX24Y24*%
%IPPOS*%
%LPD*%
%AMOC8*
5,1,8,0,0,1.08239X$1,22.5*
%
%ADD10C,0.0020*%
%ADD11C,0.0010*%
%ADD12C,0.0080*%
D10*
X001463Y001610D02*
X001463Y001720D01*
X001499Y001757D01*
X001536Y001720D01*
X001536Y001610D01*
X001609Y001610D02*
X001609Y001757D01*
X001573Y001757D01*
X001536Y001720D01*
X001684Y001720D02*
X001684Y001647D01*
X001720Y001610D01*
X001794Y001610D01*
X001830Y001647D01*
X001830Y001720D01*
X001794Y001757D01*
X001720Y001757D01*
X001684Y001720D01*
X001905Y001757D02*
X002015Y001757D01*
X002051Y001720D01*
X002051Y001647D01*
X002015Y001610D01*
X001905Y001610D01*
X002125Y001610D02*
X002162Y001610D01*
X002162Y001647D01*
X002125Y001647D01*
X002125Y001610D01*
X002236Y001610D02*
X002346Y001610D01*
X002383Y001647D01*
X002383Y001720D01*
X002346Y001757D01*
X002236Y001757D01*
X002493Y001757D02*
X002493Y001610D01*
X002457Y001610D02*
X002530Y001610D01*
X002604Y001610D02*
X002641Y001647D01*
X002641Y001793D01*
X002677Y001757D02*
X002604Y001757D01*
X002530Y001757D02*
X002493Y001757D01*
X002493Y001830D02*
X002493Y001867D01*
X002752Y001720D02*
X002788Y001757D01*
X002862Y001757D01*
X002898Y001720D01*
X002898Y001647D01*
X002862Y001610D01*
X002788Y001610D01*
X002752Y001647D01*
X002752Y001720D01*
X002973Y001720D02*
X002973Y001647D01*
X003009Y001610D01*
X003119Y001610D01*
X003119Y001830D01*
X003119Y001757D02*
X003009Y001757D01*
X002973Y001720D01*
X003194Y001720D02*
X003194Y001647D01*
X003230Y001610D01*
X003304Y001610D01*
X003340Y001647D01*
X003340Y001720D01*
X003304Y001757D01*
X003230Y001757D01*
X003194Y001720D01*
X003414Y001757D02*
X003451Y001757D01*
X003525Y001683D01*
X003525Y001610D02*
X003525Y001757D01*
X003599Y001757D02*
X003709Y001757D01*
X003746Y001720D01*
X003746Y001647D01*
X003709Y001610D01*
X003599Y001610D01*
X003820Y001610D02*
X003820Y001720D01*
X003856Y001757D01*
X003930Y001757D01*
X003930Y001683D02*
X003820Y001683D01*
X003820Y001610D02*
X003930Y001610D01*
X003967Y001647D01*
X003930Y001683D01*
X004040Y001647D02*
X004040Y001610D01*
X004077Y001610D01*
X004077Y001647D01*
X004040Y001647D01*
X004151Y001647D02*
X004151Y001757D01*
X004151Y001647D02*
X004188Y001610D01*
X004225Y001647D01*
X004261Y001610D01*
X004298Y001647D01*
X004298Y001757D01*
X004372Y001757D02*
X004372Y001647D01*
X004409Y001610D01*
X004446Y001647D01*
X004482Y001610D01*
X004519Y001647D01*
X004519Y001757D01*
X004593Y001757D02*
X004593Y001647D01*
X004630Y001610D01*
X004667Y001647D01*
X004703Y001610D01*
X004740Y001647D01*
X004740Y001757D01*
X003840Y002347D02*
X003803Y002310D01*
X003730Y002310D01*
X003693Y002347D01*
X003619Y002347D02*
X003582Y002310D01*
X003509Y002310D01*
X003472Y002347D01*
X003472Y002420D01*
X003509Y002457D01*
X003582Y002457D01*
X003619Y002420D01*
X003619Y002347D01*
X003840Y002347D02*
X003840Y002493D01*
X003803Y002530D01*
X003730Y002530D01*
X003693Y002493D01*
X003719Y002610D02*
X003609Y002610D01*
X003609Y002720D01*
X003646Y002757D01*
X003719Y002757D01*
X003830Y002757D02*
X003903Y002757D01*
X003867Y002793D02*
X003867Y002647D01*
X003830Y002610D01*
X003756Y002647D02*
X003719Y002683D01*
X003609Y002683D01*
X003535Y002610D02*
X003462Y002610D01*
X003498Y002610D02*
X003498Y002830D01*
X003535Y002830D01*
X003543Y002910D02*
X003543Y003130D01*
X003617Y003057D01*
X003690Y003130D01*
X003690Y002910D01*
X003469Y002947D02*
X003432Y002910D01*
X003359Y002910D01*
X003322Y002947D01*
X003248Y002983D02*
X003138Y002983D01*
X003101Y003020D01*
X003101Y003093D01*
X003138Y003130D01*
X003248Y003130D01*
X003248Y002910D01*
X003027Y003020D02*
X002880Y003020D01*
X002806Y002947D02*
X002806Y002910D01*
X002806Y002947D02*
X002659Y003093D01*
X002659Y003130D01*
X002806Y003130D01*
X002917Y003130D02*
X003027Y003020D01*
X002917Y002910D02*
X002917Y003130D01*
X002585Y003093D02*
X002548Y003130D01*
X002475Y003130D01*
X002438Y003093D01*
X002438Y003057D01*
X002585Y002910D01*
X002438Y002910D01*
X002364Y002947D02*
X002327Y002910D01*
X002254Y002910D01*
X002217Y002947D01*
X002217Y003020D01*
X002254Y003057D01*
X002291Y003057D01*
X002364Y003020D01*
X002364Y003130D01*
X002217Y003130D01*
X002062Y002830D02*
X002025Y002830D01*
X002025Y002610D01*
X002062Y002610D02*
X001988Y002610D01*
X001914Y002647D02*
X001878Y002610D01*
X001804Y002610D01*
X001768Y002647D01*
X001768Y002720D01*
X001804Y002757D01*
X001878Y002757D01*
X001914Y002720D01*
X001914Y002647D01*
X002136Y002683D02*
X002246Y002683D01*
X002283Y002647D01*
X002246Y002610D01*
X002136Y002610D01*
X002136Y002720D01*
X002173Y002757D01*
X002246Y002757D01*
X002357Y002720D02*
X002357Y002610D01*
X002504Y002610D02*
X002504Y002757D01*
X002394Y002757D01*
X002357Y002720D01*
X002578Y002720D02*
X002725Y002720D01*
X002725Y002757D02*
X002651Y002830D01*
X002578Y002757D01*
X002578Y002610D01*
X002514Y002493D02*
X002514Y002347D01*
X002478Y002310D01*
X002404Y002347D02*
X002404Y002420D01*
X002367Y002457D01*
X002293Y002457D01*
X002257Y002420D01*
X002257Y002383D01*
X002404Y002383D01*
X002404Y002347D02*
X002367Y002310D01*
X002293Y002310D01*
X002183Y002310D02*
X002183Y002457D01*
X002183Y002383D02*
X002109Y002457D01*
X002072Y002457D01*
X001693Y002647D02*
X001657Y002610D01*
X001547Y002610D01*
X001547Y002573D02*
X001547Y002757D01*
X001657Y002757D01*
X001693Y002720D01*
X001693Y002647D01*
X001583Y002537D02*
X001547Y002573D01*
X001583Y002537D02*
X001620Y002537D01*
X002478Y002457D02*
X002551Y002457D01*
X002625Y002457D02*
X002662Y002457D01*
X002735Y002383D01*
X002809Y002383D02*
X002809Y002420D01*
X002846Y002457D01*
X002919Y002457D01*
X002956Y002420D01*
X002956Y002347D01*
X002919Y002310D01*
X002846Y002310D01*
X002809Y002383D02*
X002956Y002383D01*
X003030Y002457D02*
X003104Y002310D01*
X003177Y002457D01*
X003251Y002420D02*
X003251Y002310D01*
X003398Y002310D02*
X003398Y002457D01*
X003288Y002457D01*
X003251Y002420D01*
X003167Y002720D02*
X003020Y002720D01*
X002725Y002757D02*
X002725Y002610D01*
X002735Y002457D02*
X002735Y002310D01*
X003719Y002610D02*
X003756Y002647D01*
X003977Y002610D02*
X004051Y002610D01*
X004014Y002610D02*
X004014Y002757D01*
X004051Y002757D01*
X004125Y002757D02*
X004235Y002757D01*
X004272Y002720D01*
X004272Y002647D01*
X004235Y002610D01*
X004125Y002610D01*
X004125Y002573D02*
X004125Y002757D01*
X004014Y002830D02*
X004014Y002867D01*
X004382Y002867D02*
X004382Y002830D01*
X004382Y002757D02*
X004382Y002610D01*
X004346Y002610D02*
X004419Y002610D01*
X004493Y002647D02*
X004493Y002793D01*
X004530Y002830D01*
X004640Y002830D01*
X004640Y002610D01*
X004530Y002610D01*
X004493Y002647D01*
X004419Y002757D02*
X004382Y002757D01*
X004162Y002537D02*
X004125Y002573D01*
X004162Y002537D02*
X004198Y002537D01*
X003469Y002947D02*
X003469Y003093D01*
X003432Y003130D01*
X003359Y003130D01*
X003322Y003093D01*
D11*
X003450Y001428D02*
X002674Y001428D01*
X002674Y000498D01*
X002948Y000498D01*
X002948Y000772D01*
X002898Y000796D01*
X002898Y001080D01*
X002946Y001120D01*
X002976Y001120D01*
X002976Y001238D01*
X002998Y001260D01*
X003124Y001260D01*
X003152Y001234D01*
X003152Y001142D01*
X003174Y001142D01*
X003174Y001120D01*
X003152Y001120D01*
X002978Y001120D01*
X002978Y001136D01*
X003178Y001136D01*
X003178Y001118D01*
X003226Y001078D01*
X003226Y000796D01*
X003176Y000770D01*
X003176Y000500D01*
X003450Y000500D01*
X003450Y001428D01*
X003450Y001420D02*
X002674Y001420D01*
X002674Y001412D02*
X003450Y001412D01*
X003450Y001403D02*
X002674Y001403D01*
X002674Y001395D02*
X003450Y001395D01*
X003450Y001386D02*
X002674Y001386D01*
X002674Y001378D02*
X003450Y001378D01*
X003450Y001369D02*
X002674Y001369D01*
X002674Y001361D02*
X003450Y001361D01*
X003450Y001352D02*
X002674Y001352D01*
X002674Y001344D02*
X003450Y001344D01*
X003450Y001335D02*
X002674Y001335D01*
X002674Y001327D02*
X003450Y001327D01*
X003450Y001318D02*
X002674Y001318D01*
X002674Y001310D02*
X003450Y001310D01*
X003450Y001301D02*
X002674Y001301D01*
X002674Y001293D02*
X003450Y001293D01*
X003450Y001284D02*
X002674Y001284D01*
X002674Y001276D02*
X003450Y001276D01*
X003450Y001267D02*
X002674Y001267D01*
X002674Y001259D02*
X002997Y001259D01*
X002988Y001250D02*
X002674Y001250D01*
X002674Y001242D02*
X002980Y001242D01*
X002976Y001233D02*
X002674Y001233D01*
X002674Y001225D02*
X002976Y001225D01*
X002976Y001216D02*
X002674Y001216D01*
X002674Y001208D02*
X002976Y001208D01*
X002976Y001199D02*
X002674Y001199D01*
X002674Y001191D02*
X002976Y001191D01*
X002976Y001182D02*
X002674Y001182D01*
X002674Y001174D02*
X002976Y001174D01*
X002976Y001165D02*
X002674Y001165D01*
X002674Y001157D02*
X002976Y001157D01*
X002976Y001148D02*
X002674Y001148D01*
X002674Y001140D02*
X002976Y001140D01*
X002976Y001131D02*
X002674Y001131D01*
X002674Y001123D02*
X002976Y001123D01*
X002978Y001123D02*
X003174Y001123D01*
X003178Y001123D02*
X003450Y001123D01*
X003450Y001131D02*
X003178Y001131D01*
X003174Y001131D02*
X002978Y001131D01*
X002939Y001114D02*
X002674Y001114D01*
X002674Y001106D02*
X002929Y001106D01*
X002918Y001097D02*
X002674Y001097D01*
X002674Y001089D02*
X002908Y001089D01*
X002898Y001080D02*
X002674Y001080D01*
X002674Y001072D02*
X002898Y001072D01*
X002898Y001063D02*
X002674Y001063D01*
X002674Y001055D02*
X002898Y001055D01*
X002898Y001046D02*
X002674Y001046D01*
X002674Y001038D02*
X002898Y001038D01*
X002898Y001029D02*
X002674Y001029D01*
X002674Y001021D02*
X002898Y001021D01*
X002898Y001012D02*
X002674Y001012D01*
X002674Y001004D02*
X002898Y001004D01*
X002898Y000995D02*
X002674Y000995D01*
X002674Y000987D02*
X002898Y000987D01*
X002898Y000978D02*
X002674Y000978D01*
X002674Y000970D02*
X002898Y000970D01*
X002898Y000961D02*
X002674Y000961D01*
X002674Y000953D02*
X002898Y000953D01*
X002898Y000944D02*
X002674Y000944D01*
X002674Y000936D02*
X002898Y000936D01*
X002898Y000927D02*
X002674Y000927D01*
X002674Y000919D02*
X002898Y000919D01*
X002898Y000910D02*
X002674Y000910D01*
X002674Y000902D02*
X002898Y000902D01*
X002898Y000893D02*
X002674Y000893D01*
X002674Y000885D02*
X002898Y000885D01*
X002898Y000876D02*
X002674Y000876D01*
X002674Y000868D02*
X002898Y000868D01*
X002898Y000859D02*
X002674Y000859D01*
X002674Y000851D02*
X002898Y000851D01*
X002898Y000842D02*
X002674Y000842D01*
X002674Y000834D02*
X002898Y000834D01*
X002898Y000825D02*
X002674Y000825D01*
X002674Y000817D02*
X002898Y000817D01*
X002898Y000808D02*
X002674Y000808D01*
X002674Y000800D02*
X002898Y000800D01*
X002908Y000791D02*
X002674Y000791D01*
X002674Y000783D02*
X002926Y000783D01*
X002944Y000774D02*
X002674Y000774D01*
X002674Y000766D02*
X002948Y000766D01*
X002948Y000757D02*
X002674Y000757D01*
X002674Y000749D02*
X002948Y000749D01*
X002948Y000740D02*
X002674Y000740D01*
X002674Y000732D02*
X002948Y000732D01*
X002948Y000723D02*
X002674Y000723D01*
X002674Y000715D02*
X002948Y000715D01*
X002948Y000706D02*
X002674Y000706D01*
X002674Y000698D02*
X002948Y000698D01*
X002948Y000689D02*
X002674Y000689D01*
X002674Y000681D02*
X002948Y000681D01*
X002948Y000672D02*
X002674Y000672D01*
X002674Y000664D02*
X002948Y000664D01*
X002948Y000655D02*
X002674Y000655D01*
X002674Y000647D02*
X002948Y000647D01*
X002948Y000638D02*
X002674Y000638D01*
X002674Y000630D02*
X002948Y000630D01*
X002948Y000621D02*
X002674Y000621D01*
X002674Y000613D02*
X002948Y000613D01*
X002948Y000604D02*
X002674Y000604D01*
X002674Y000596D02*
X002948Y000596D01*
X002948Y000587D02*
X002674Y000587D01*
X002674Y000579D02*
X002948Y000579D01*
X002948Y000570D02*
X002674Y000570D01*
X002674Y000562D02*
X002948Y000562D01*
X002948Y000553D02*
X002674Y000553D01*
X002674Y000545D02*
X002948Y000545D01*
X002948Y000536D02*
X002674Y000536D01*
X002674Y000528D02*
X002948Y000528D01*
X002948Y000519D02*
X002674Y000519D01*
X002674Y000511D02*
X002948Y000511D01*
X002948Y000502D02*
X002674Y000502D01*
X003176Y000502D02*
X003450Y000502D01*
X003450Y000511D02*
X003176Y000511D01*
X003176Y000519D02*
X003450Y000519D01*
X003450Y000528D02*
X003176Y000528D01*
X003176Y000536D02*
X003450Y000536D01*
X003450Y000545D02*
X003176Y000545D01*
X003176Y000553D02*
X003450Y000553D01*
X003450Y000562D02*
X003176Y000562D01*
X003176Y000570D02*
X003450Y000570D01*
X003450Y000579D02*
X003176Y000579D01*
X003176Y000587D02*
X003450Y000587D01*
X003450Y000596D02*
X003176Y000596D01*
X003176Y000604D02*
X003450Y000604D01*
X003450Y000613D02*
X003176Y000613D01*
X003176Y000621D02*
X003450Y000621D01*
X003450Y000630D02*
X003176Y000630D01*
X003176Y000638D02*
X003450Y000638D01*
X003450Y000647D02*
X003176Y000647D01*
X003176Y000655D02*
X003450Y000655D01*
X003450Y000664D02*
X003176Y000664D01*
X003176Y000672D02*
X003450Y000672D01*
X003450Y000681D02*
X003176Y000681D01*
X003176Y000689D02*
X003450Y000689D01*
X003450Y000698D02*
X003176Y000698D01*
X003176Y000706D02*
X003450Y000706D01*
X003450Y000715D02*
X003176Y000715D01*
X003176Y000723D02*
X003450Y000723D01*
X003450Y000732D02*
X003176Y000732D01*
X003176Y000740D02*
X003450Y000740D01*
X003450Y000749D02*
X003176Y000749D01*
X003176Y000757D02*
X003450Y000757D01*
X003450Y000766D02*
X003176Y000766D01*
X003184Y000774D02*
X003450Y000774D01*
X003450Y000783D02*
X003200Y000783D01*
X003216Y000791D02*
X003450Y000791D01*
X003450Y000800D02*
X003226Y000800D01*
X003226Y000808D02*
X003450Y000808D01*
X003450Y000817D02*
X003226Y000817D01*
X003226Y000825D02*
X003450Y000825D01*
X003450Y000834D02*
X003226Y000834D01*
X003226Y000842D02*
X003450Y000842D01*
X003450Y000851D02*
X003226Y000851D01*
X003226Y000859D02*
X003450Y000859D01*
X003450Y000868D02*
X003226Y000868D01*
X003226Y000876D02*
X003450Y000876D01*
X003450Y000885D02*
X003226Y000885D01*
X003226Y000893D02*
X003450Y000893D01*
X003450Y000902D02*
X003226Y000902D01*
X003226Y000910D02*
X003450Y000910D01*
X003450Y000919D02*
X003226Y000919D01*
X003226Y000927D02*
X003450Y000927D01*
X003450Y000936D02*
X003226Y000936D01*
X003226Y000944D02*
X003450Y000944D01*
X003450Y000953D02*
X003226Y000953D01*
X003226Y000961D02*
X003450Y000961D01*
X003450Y000970D02*
X003226Y000970D01*
X003226Y000978D02*
X003450Y000978D01*
X003450Y000987D02*
X003226Y000987D01*
X003226Y000995D02*
X003450Y000995D01*
X003450Y001004D02*
X003226Y001004D01*
X003226Y001012D02*
X003450Y001012D01*
X003450Y001021D02*
X003226Y001021D01*
X003226Y001029D02*
X003450Y001029D01*
X003450Y001038D02*
X003226Y001038D01*
X003226Y001046D02*
X003450Y001046D01*
X003450Y001055D02*
X003226Y001055D01*
X003226Y001063D02*
X003450Y001063D01*
X003450Y001072D02*
X003226Y001072D01*
X003224Y001080D02*
X003450Y001080D01*
X003450Y001089D02*
X003213Y001089D01*
X003203Y001097D02*
X003450Y001097D01*
X003450Y001106D02*
X003193Y001106D01*
X003183Y001114D02*
X003450Y001114D01*
X003450Y001140D02*
X003174Y001140D01*
X003152Y001148D02*
X003450Y001148D01*
X003450Y001157D02*
X003152Y001157D01*
X003152Y001165D02*
X003450Y001165D01*
X003450Y001174D02*
X003152Y001174D01*
X003152Y001182D02*
X003450Y001182D01*
X003450Y001191D02*
X003152Y001191D01*
X003152Y001199D02*
X003450Y001199D01*
X003450Y001208D02*
X003152Y001208D01*
X003152Y001216D02*
X003450Y001216D01*
X003450Y001225D02*
X003152Y001225D01*
X003152Y001233D02*
X003450Y001233D01*
X003450Y001242D02*
X003144Y001242D01*
X003135Y001250D02*
X003450Y001250D01*
X003450Y001259D02*
X003126Y001259D01*
X004303Y000547D02*
X004377Y000473D01*
X004358Y000455D01*
X004322Y000455D01*
X004303Y000473D01*
X004303Y000547D01*
X004322Y000565D01*
X004358Y000565D01*
X004377Y000547D01*
X004377Y000473D01*
X004414Y000473D02*
X004414Y000455D01*
X004432Y000455D01*
X004432Y000473D01*
X004414Y000473D01*
X004469Y000455D02*
X004543Y000455D01*
X004506Y000455D02*
X004506Y000565D01*
X004543Y000528D01*
X004580Y000528D02*
X004616Y000455D01*
X004653Y000528D01*
X004801Y000510D02*
X004874Y000510D01*
X004911Y000473D02*
X004929Y000455D01*
X004966Y000455D01*
X004985Y000473D01*
X004985Y000547D01*
X004966Y000565D01*
X004929Y000565D01*
X004911Y000547D01*
X004874Y000565D02*
X004874Y000455D01*
X004801Y000455D02*
X004801Y000565D01*
X005022Y000565D02*
X005058Y000565D01*
X005040Y000565D02*
X005040Y000473D01*
X005058Y000455D01*
X005077Y000455D01*
X005095Y000473D01*
D12*
X001150Y000400D02*
X000150Y000400D01*
X000150Y003400D01*
X001150Y003400D01*
X001150Y000400D01*
X005150Y000400D02*
X006150Y000400D01*
X006150Y003400D01*
X005150Y003400D01*
X005150Y000400D01*
M02*
