G75*
%MOIN*%
%OFA0B0*%
%FSLAX24Y24*%
%IPPOS*%
%LPD*%
%AMOC8*
5,1,8,0,0,1.08239X$1,22.5*
%
%ADD10C,0.0010*%
%ADD11R,0.0433X0.0394*%
%ADD12R,0.0740X0.0740*%
%ADD13C,0.0740*%
%ADD14R,0.0250X0.0500*%
%ADD15R,0.0394X0.0433*%
%ADD16R,0.0472X0.0217*%
%ADD17C,0.0100*%
%ADD18C,0.0350*%
D10*
X000150Y000400D02*
X006150Y000400D01*
X006150Y003400D01*
X000150Y003400D01*
X000150Y000400D01*
D11*
X001896Y000880D03*
X002604Y000880D03*
X003246Y000880D03*
X003954Y000880D03*
X003706Y003050D03*
X003104Y003050D03*
X002396Y003050D03*
X004414Y003050D03*
D12*
X000650Y000900D03*
D13*
X000650Y001900D03*
X000650Y002900D03*
X005650Y002900D03*
X005650Y001900D03*
X005650Y000900D03*
D14*
X002037Y002050D03*
X001683Y002050D03*
D15*
X004500Y002104D03*
X004500Y001396D03*
D16*
X003712Y001756D03*
X003712Y002130D03*
X003712Y002504D03*
X002688Y002504D03*
X002688Y002130D03*
X002688Y001756D03*
D17*
X002624Y001726D01*
X002650Y001700D01*
X002650Y001550D01*
X002700Y001500D01*
X002700Y000900D01*
X002650Y000896D01*
X002604Y000880D01*
X002911Y001171D02*
X002880Y001202D01*
X002880Y001518D01*
X002978Y001518D01*
X003054Y001594D01*
X003054Y001918D01*
X003044Y001929D01*
X003044Y001930D01*
X003064Y001964D01*
X003074Y002002D01*
X003074Y002126D01*
X002692Y002126D01*
X002692Y002134D01*
X003074Y002134D01*
X003074Y002258D01*
X003064Y002296D01*
X003044Y002330D01*
X003044Y002331D01*
X003054Y002342D01*
X003054Y002666D01*
X002997Y002723D01*
X003375Y002723D01*
X003405Y002753D01*
X003419Y002739D01*
X003346Y002666D01*
X003346Y002630D01*
X003275Y002630D01*
X003170Y002525D01*
X003120Y002475D01*
X003120Y001525D01*
X003340Y001305D01*
X003419Y001227D01*
X003294Y001227D01*
X003294Y000928D01*
X003197Y000928D01*
X003197Y001227D01*
X003009Y001227D01*
X002971Y001217D01*
X002937Y001197D01*
X002911Y001171D01*
X002894Y001188D02*
X002928Y001188D01*
X002880Y001287D02*
X003359Y001287D01*
X003294Y001188D02*
X003197Y001188D01*
X003100Y001150D02*
X003250Y001046D01*
X003246Y000880D01*
X003250Y000846D01*
X003250Y000650D01*
X003350Y000550D01*
X005100Y000550D01*
X005150Y000600D01*
X005150Y000850D01*
X005200Y000900D01*
X005650Y000900D01*
X005600Y000893D02*
X004680Y000893D01*
X004680Y000825D02*
X004680Y001049D01*
X004751Y001049D01*
X004827Y001125D01*
X004827Y001666D01*
X004751Y001742D01*
X004480Y001742D01*
X004480Y001758D01*
X004751Y001758D01*
X004827Y001834D01*
X004827Y001924D01*
X005150Y001924D01*
X005150Y001801D01*
X005226Y001617D01*
X005367Y001476D01*
X005532Y001408D01*
X005528Y001407D01*
X005450Y001382D01*
X005377Y001345D01*
X005311Y001297D01*
X005253Y001239D01*
X005205Y001173D01*
X005168Y001100D01*
X005143Y001022D01*
X005131Y000950D01*
X005600Y000950D01*
X005600Y000850D01*
X005131Y000850D01*
X005143Y000778D01*
X005168Y000700D01*
X005205Y000627D01*
X005253Y000561D01*
X005280Y000535D01*
X003489Y000535D01*
X003520Y000543D01*
X003554Y000563D01*
X003582Y000591D01*
X003602Y000625D01*
X003608Y000647D01*
X003608Y000629D01*
X003684Y000553D01*
X004225Y000553D01*
X004242Y000570D01*
X004425Y000570D01*
X004530Y000675D01*
X004680Y000825D01*
X004649Y000794D02*
X005140Y000794D01*
X005171Y000696D02*
X004550Y000696D01*
X004452Y000597D02*
X005227Y000597D01*
X005138Y000991D02*
X004680Y000991D01*
X004791Y001090D02*
X005165Y001090D01*
X005216Y001188D02*
X004827Y001188D01*
X004827Y001287D02*
X005301Y001287D01*
X005460Y001385D02*
X004827Y001385D01*
X004827Y001484D02*
X005359Y001484D01*
X005261Y001582D02*
X004827Y001582D01*
X004812Y001681D02*
X005200Y001681D01*
X005159Y001779D02*
X004772Y001779D01*
X004827Y001878D02*
X005150Y001878D01*
X005446Y002104D02*
X005650Y001900D01*
X005446Y002104D02*
X004500Y002104D01*
X004696Y002100D01*
X004350Y002100D01*
X004300Y002050D01*
X004300Y001800D01*
X004256Y001756D01*
X003712Y001756D01*
X003520Y001380D02*
X003300Y001600D01*
X003300Y002400D01*
X003350Y002450D01*
X003588Y002450D01*
X003712Y002504D01*
X003650Y002512D01*
X003800Y002660D01*
X003800Y003000D01*
X003706Y003050D01*
X003104Y003050D01*
X003054Y002666D02*
X003346Y002666D01*
X003212Y002567D02*
X003054Y002567D01*
X003054Y002469D02*
X003120Y002469D01*
X003120Y002370D02*
X003054Y002370D01*
X003071Y002272D02*
X003120Y002272D01*
X003120Y002173D02*
X003074Y002173D01*
X003050Y002130D02*
X003100Y002050D01*
X003100Y001150D01*
X003197Y001090D02*
X003294Y001090D01*
X003294Y000991D02*
X003197Y000991D01*
X003197Y000832D02*
X003294Y000832D01*
X003294Y000535D01*
X003197Y000535D01*
X003197Y000832D01*
X003197Y000794D02*
X003294Y000794D01*
X003294Y000696D02*
X003197Y000696D01*
X003197Y000597D02*
X003294Y000597D01*
X003586Y000597D02*
X003640Y000597D01*
X003954Y000750D02*
X003954Y000880D01*
X003954Y001146D01*
X003750Y001380D01*
X003520Y001380D01*
X003260Y001385D02*
X002880Y001385D01*
X002880Y001484D02*
X003162Y001484D01*
X003120Y001582D02*
X003043Y001582D01*
X003054Y001681D02*
X003120Y001681D01*
X003120Y001779D02*
X003054Y001779D01*
X003054Y001878D02*
X003120Y001878D01*
X003120Y001976D02*
X003067Y001976D01*
X003074Y002075D02*
X003120Y002075D01*
X003050Y002130D02*
X002688Y002130D01*
X002218Y002130D01*
X002037Y002050D01*
X002050Y002063D01*
X002050Y002300D01*
X001960Y002430D01*
X001210Y002430D01*
X001150Y002350D01*
X001150Y002210D01*
X000850Y001900D01*
X000650Y001900D01*
X000700Y001878D02*
X000970Y001878D01*
X000970Y001850D02*
X000700Y001850D01*
X000700Y001950D01*
X000970Y001950D01*
X000970Y001850D01*
X001150Y001950D02*
X001150Y000950D01*
X001100Y000900D01*
X000650Y000900D01*
X001150Y000720D02*
X001175Y000720D01*
X001280Y000825D01*
X001330Y000875D01*
X001330Y001255D01*
X001341Y001227D01*
X001427Y001141D01*
X001530Y001099D01*
X001529Y001097D01*
X001529Y000928D01*
X001847Y000928D01*
X001847Y000832D01*
X001529Y000832D01*
X001529Y000663D01*
X001539Y000625D01*
X001559Y000591D01*
X001587Y000563D01*
X001621Y000543D01*
X001652Y000535D01*
X001150Y000535D01*
X001150Y000720D01*
X001150Y000696D02*
X001529Y000696D01*
X001529Y000794D02*
X001249Y000794D01*
X001330Y000893D02*
X001847Y000893D01*
X001847Y000928D02*
X001847Y001216D01*
X001859Y001227D01*
X001905Y001339D01*
X001905Y001461D01*
X001859Y001573D01*
X001780Y001651D01*
X001780Y001670D01*
X001837Y001670D01*
X001854Y001660D01*
X001892Y001650D01*
X002025Y001650D01*
X002025Y002037D01*
X002050Y002037D01*
X002050Y001650D01*
X002119Y001650D01*
X002041Y001573D01*
X001995Y001461D01*
X001995Y001339D01*
X002041Y001227D01*
X002042Y001227D01*
X001944Y001227D01*
X001944Y000928D01*
X001847Y000928D01*
X001896Y000880D02*
X001896Y001046D01*
X001940Y001080D01*
X001936Y001676D01*
X002000Y001750D01*
X002000Y002027D01*
X002037Y002050D01*
X002025Y002063D02*
X002025Y002450D01*
X001892Y002450D01*
X001854Y002440D01*
X001837Y002430D01*
X001504Y002430D01*
X001428Y002354D01*
X001428Y002230D01*
X001175Y002230D01*
X001103Y002157D01*
X001095Y002173D01*
X001047Y002239D01*
X000989Y002297D01*
X000923Y002345D01*
X000850Y002382D01*
X000772Y002407D01*
X000768Y002408D01*
X000933Y002476D01*
X001026Y002569D01*
X001125Y002470D01*
X002184Y002470D01*
X002209Y002443D01*
X002182Y002450D01*
X002050Y002450D01*
X002050Y002063D01*
X002025Y002063D01*
X002025Y002075D02*
X002050Y002075D01*
X002050Y002173D02*
X002025Y002173D01*
X002025Y002272D02*
X002050Y002272D01*
X002050Y002370D02*
X002025Y002370D01*
X002185Y002469D02*
X000915Y002469D01*
X000873Y002370D02*
X001444Y002370D01*
X001428Y002272D02*
X001014Y002272D01*
X001094Y002173D02*
X001118Y002173D01*
X001250Y002050D02*
X001150Y001950D01*
X001250Y002050D02*
X001683Y002050D01*
X001600Y002027D01*
X001600Y001400D01*
X001883Y001287D02*
X002017Y001287D01*
X001944Y001188D02*
X001847Y001188D01*
X001847Y001090D02*
X001944Y001090D01*
X001944Y000991D02*
X001847Y000991D01*
X001529Y000991D02*
X001330Y000991D01*
X001330Y001090D02*
X001529Y001090D01*
X001381Y001188D02*
X001330Y001188D01*
X001905Y001385D02*
X001995Y001385D01*
X002004Y001484D02*
X001896Y001484D01*
X001849Y001582D02*
X002051Y001582D01*
X002050Y001681D02*
X002025Y001681D01*
X002025Y001779D02*
X002050Y001779D01*
X002050Y001878D02*
X002025Y001878D01*
X002025Y001976D02*
X002050Y001976D01*
X002300Y001610D02*
X002476Y001726D01*
X002688Y001756D01*
X002300Y001610D02*
X002300Y001400D01*
X001556Y000597D02*
X001150Y000597D01*
X003712Y002130D02*
X004000Y002130D01*
X004100Y002230D01*
X004100Y002766D01*
X004414Y003050D01*
X005500Y003050D01*
X005650Y002900D01*
X004500Y001396D02*
X004500Y000900D01*
X004350Y000750D01*
X003954Y000750D01*
X002688Y002504D02*
X002562Y002500D01*
X002400Y002500D01*
X002300Y002610D01*
X002260Y002650D01*
X001200Y002650D01*
X001150Y002700D01*
X001150Y002850D01*
X001100Y002900D01*
X000650Y002900D01*
X001024Y002567D02*
X001028Y002567D01*
X001870Y003050D02*
X002486Y003056D01*
X002500Y003046D01*
X002396Y003050D01*
D18*
X001870Y003050D03*
X001600Y001400D03*
X002300Y001400D03*
X003750Y001380D03*
M02*
