G75*
%MOIN*%
%OFA0B0*%
%FSLAX24Y24*%
%IPPOS*%
%LPD*%
%AMOC8*
5,1,8,0,0,1.08239X$1,22.5*
%
%ADD10R,0.0740X0.0740*%
%ADD11C,0.0740*%
%ADD12C,0.0100*%
%ADD13C,0.0350*%
D10*
X000650Y000900D03*
D11*
X000650Y001900D03*
X000650Y002900D03*
X005650Y002900D03*
X005650Y001900D03*
X005650Y000900D03*
D12*
X001150Y000745D02*
X001150Y000535D01*
X005280Y000535D01*
X005253Y000561D01*
X005205Y000627D01*
X005168Y000700D01*
X005143Y000778D01*
X005131Y000850D01*
X005600Y000850D01*
X005600Y000950D01*
X005131Y000950D01*
X005143Y001022D01*
X005168Y001100D01*
X005205Y001173D01*
X005253Y001239D01*
X005311Y001297D01*
X005377Y001345D01*
X005450Y001382D01*
X005528Y001407D01*
X005532Y001408D01*
X005367Y001476D01*
X005226Y001617D01*
X005150Y001801D01*
X005150Y001999D01*
X005226Y002183D01*
X005367Y002324D01*
X005551Y002400D01*
X005749Y002400D01*
X005933Y002324D01*
X006015Y002242D01*
X006015Y002558D01*
X005933Y002476D01*
X005749Y002400D01*
X005551Y002400D01*
X005367Y002476D01*
X005226Y002617D01*
X005150Y002801D01*
X005150Y002999D01*
X005226Y003183D01*
X005308Y003265D01*
X002086Y003265D01*
X002129Y003223D01*
X002175Y003111D01*
X002175Y002989D01*
X002129Y002877D01*
X002043Y002791D01*
X001931Y002745D01*
X001809Y002745D01*
X001697Y002791D01*
X001619Y002870D01*
X001330Y002870D01*
X001330Y001545D01*
X001341Y001573D01*
X001427Y001659D01*
X001539Y001705D01*
X001661Y001705D01*
X001773Y001659D01*
X001859Y001573D01*
X001905Y001461D01*
X001905Y001339D01*
X001901Y001330D01*
X001999Y001330D01*
X001995Y001339D01*
X001995Y001461D01*
X002041Y001573D01*
X002127Y001659D01*
X002239Y001705D01*
X002361Y001705D01*
X002473Y001659D01*
X002550Y001582D01*
X003527Y001589D01*
X003577Y001639D01*
X003689Y001685D01*
X003811Y001685D01*
X003923Y001639D01*
X004009Y001553D01*
X004055Y001441D01*
X004055Y001319D01*
X004009Y001207D01*
X003923Y001121D01*
X003811Y001075D01*
X003689Y001075D01*
X003577Y001121D01*
X003491Y001207D01*
X003483Y001228D01*
X002553Y001222D01*
X002480Y001149D01*
X002480Y001125D01*
X002430Y001075D01*
X002325Y000970D01*
X001575Y000970D01*
X001525Y001020D01*
X001420Y001125D01*
X001420Y001149D01*
X001341Y001227D01*
X001330Y001255D01*
X001330Y000925D01*
X001230Y000825D01*
X001150Y000745D01*
X001150Y000696D02*
X005171Y000696D01*
X005140Y000794D02*
X001199Y000794D01*
X001297Y000893D02*
X005600Y000893D01*
X005138Y000991D02*
X002346Y000991D01*
X002444Y001090D02*
X003654Y001090D01*
X003511Y001188D02*
X002519Y001188D01*
X002300Y001200D02*
X002250Y001150D01*
X001650Y001150D01*
X001600Y001200D01*
X001600Y001400D01*
X001381Y001188D02*
X001330Y001188D01*
X001330Y001090D02*
X001456Y001090D01*
X001554Y000991D02*
X001330Y000991D01*
X001150Y001000D02*
X001050Y000900D01*
X000650Y000900D01*
X001150Y001000D02*
X001150Y003000D01*
X001200Y003050D01*
X001870Y003050D01*
X002155Y003158D02*
X005216Y003158D01*
X005175Y003060D02*
X002175Y003060D01*
X002163Y002961D02*
X005150Y002961D01*
X005150Y002863D02*
X002114Y002863D01*
X001977Y002764D02*
X005165Y002764D01*
X005206Y002666D02*
X001330Y002666D01*
X001330Y002764D02*
X001763Y002764D01*
X001626Y002863D02*
X001330Y002863D01*
X001330Y002567D02*
X005276Y002567D01*
X005385Y002469D02*
X001330Y002469D01*
X001330Y002370D02*
X005478Y002370D01*
X005314Y002272D02*
X001330Y002272D01*
X001330Y002173D02*
X005222Y002173D01*
X005181Y002075D02*
X001330Y002075D01*
X001330Y001976D02*
X005150Y001976D01*
X005150Y001878D02*
X001330Y001878D01*
X001330Y001779D02*
X005159Y001779D01*
X005200Y001681D02*
X003822Y001681D01*
X003678Y001681D02*
X002420Y001681D01*
X002549Y001582D02*
X002586Y001582D01*
X002300Y001400D02*
X003730Y001410D01*
X003750Y001380D01*
X004055Y001385D02*
X005460Y001385D01*
X005359Y001484D02*
X004037Y001484D01*
X003979Y001582D02*
X005261Y001582D01*
X005301Y001287D02*
X004041Y001287D01*
X003989Y001188D02*
X005216Y001188D01*
X005165Y001090D02*
X003846Y001090D01*
X005227Y000597D02*
X001150Y000597D01*
X002300Y001200D02*
X002300Y001400D01*
X001995Y001385D02*
X001905Y001385D01*
X001896Y001484D02*
X002004Y001484D01*
X002051Y001582D02*
X001849Y001582D01*
X001720Y001681D02*
X002180Y001681D01*
X001480Y001681D02*
X001330Y001681D01*
X001330Y001582D02*
X001351Y001582D01*
X002095Y003257D02*
X005299Y003257D01*
X005915Y002469D02*
X006015Y002469D01*
X006015Y002370D02*
X005822Y002370D01*
X005986Y002272D02*
X006015Y002272D01*
D13*
X003750Y001380D03*
X002300Y001400D03*
X001600Y001400D03*
X001870Y003050D03*
M02*
